<svg xmlns="http://www.w3.org/2000/svg" viewBox="0 0 32 32">
  <g transform="rotate(20, 16, 16)">
    <!-- Same tight leaf + left-side highlight for depth -->
    <path d="M16,1 C29,3 31,19 23,27 C20,30 16,31 16,31 C16,31 12,30 9,27 C1,19 3,3 16,1 Z" fill="#2196F3"/>
    <!-- Left-half lighter overlay -->
    <path d="M16,1 C9,4 7,16 9,27 C12,30 16,31 16,31 Z" fill="#64B5F6" opacity="0.35"/>
    <!-- Midrib -->
    <line x1="16" y1="3" x2="16" y2="29" stroke="white" stroke-width="1.3" stroke-linecap="round" opacity="0.8"/>
    <!-- Side veins -->
    <line x1="16" y1="11" x2="23" y2="17" stroke="white" stroke-width="1" stroke-linecap="round" opacity="0.5"/>
    <line x1="16" y1="11" x2="9"  y2="17" stroke="white" stroke-width="1" stroke-linecap="round" opacity="0.5"/>
    <line x1="16" y1="19" x2="22" y2="24" stroke="white" stroke-width="1" stroke-linecap="round" opacity="0.5"/>
    <line x1="16" y1="19" x2="10" y2="24" stroke="white" stroke-width="1" stroke-linecap="round" opacity="0.5"/>
  </g>
</svg>
